<mxfile host="app.diagrams.net" modified="2020-07-11T02:58:42.428Z" agent="5.0 (Macintosh; Intel Mac OS X 10_15_5) AppleWebKit/537.36 (KHTML, like Gecko) Chrome/83.0.4103.116 Safari/537.36" etag="COSFLVuvIwWoUG3jRc_X" version="13.4.0" type="github">
  <diagram id="cfWycw0iluidlCtiPQWs" name="Page-1">
    <mxGraphModel dx="2066" dy="1105" grid="1" gridSize="10" guides="1" tooltips="1" connect="1" arrows="1" fold="1" page="1" pageScale="1" pageWidth="827" pageHeight="1169" math="0" shadow="0">
      <root>
        <mxCell id="0" />
        <mxCell id="1" parent="0" />
        <mxCell id="TW3tm_7QO1CJUnOCcFBR-1" value="Processor1" style="whiteSpace=wrap;html=1;aspect=fixed;fillColor=#f8cecc;strokeColor=#b85450;" vertex="1" parent="1">
          <mxGeometry x="160" y="170" width="80" height="80" as="geometry" />
        </mxCell>
        <mxCell id="TW3tm_7QO1CJUnOCcFBR-2" value="&lt;span&gt;Processor2&lt;/span&gt;" style="whiteSpace=wrap;html=1;aspect=fixed;fillColor=#f8cecc;strokeColor=#b85450;" vertex="1" parent="1">
          <mxGeometry x="280" y="170" width="80" height="80" as="geometry" />
        </mxCell>
        <mxCell id="TW3tm_7QO1CJUnOCcFBR-3" value="&lt;span&gt;Processor3&lt;/span&gt;" style="whiteSpace=wrap;html=1;aspect=fixed;fillColor=#f8cecc;strokeColor=#b85450;" vertex="1" parent="1">
          <mxGeometry x="400" y="170" width="80" height="80" as="geometry" />
        </mxCell>
        <mxCell id="TW3tm_7QO1CJUnOCcFBR-4" value="&lt;span&gt;Processor4&lt;/span&gt;" style="whiteSpace=wrap;html=1;aspect=fixed;fillColor=#f8cecc;strokeColor=#b85450;" vertex="1" parent="1">
          <mxGeometry x="520" y="170" width="80" height="80" as="geometry" />
        </mxCell>
        <mxCell id="TW3tm_7QO1CJUnOCcFBR-5" value="" style="endArrow=classic;startArrow=classic;html=1;exitX=1;exitY=0.5;exitDx=0;exitDy=0;entryX=0;entryY=0.5;entryDx=0;entryDy=0;" edge="1" parent="1" source="TW3tm_7QO1CJUnOCcFBR-1" target="TW3tm_7QO1CJUnOCcFBR-2">
          <mxGeometry width="50" height="50" relative="1" as="geometry">
            <mxPoint x="240" y="240" as="sourcePoint" />
            <mxPoint x="290" y="190" as="targetPoint" />
          </mxGeometry>
        </mxCell>
        <mxCell id="TW3tm_7QO1CJUnOCcFBR-7" value="" style="endArrow=classic;startArrow=classic;html=1;exitX=1;exitY=0.5;exitDx=0;exitDy=0;entryX=0;entryY=0.5;entryDx=0;entryDy=0;" edge="1" parent="1">
          <mxGeometry width="50" height="50" relative="1" as="geometry">
            <mxPoint x="360" y="209.5" as="sourcePoint" />
            <mxPoint x="400" y="209.5" as="targetPoint" />
          </mxGeometry>
        </mxCell>
        <mxCell id="TW3tm_7QO1CJUnOCcFBR-8" value="" style="endArrow=classic;startArrow=classic;html=1;exitX=1;exitY=0.5;exitDx=0;exitDy=0;entryX=0;entryY=0.5;entryDx=0;entryDy=0;" edge="1" parent="1">
          <mxGeometry width="50" height="50" relative="1" as="geometry">
            <mxPoint x="480" y="209.5" as="sourcePoint" />
            <mxPoint x="520" y="209.5" as="targetPoint" />
          </mxGeometry>
        </mxCell>
        <mxCell id="TW3tm_7QO1CJUnOCcFBR-9" value="" style="html=1;shadow=0;dashed=0;align=center;verticalAlign=middle;shape=mxgraph.arrows2.twoWayArrow;dy=0.65;dx=22;fillColor=#1ba1e2;strokeColor=#006EAF;fontColor=#ffffff;" vertex="1" parent="1">
          <mxGeometry x="110" y="300" width="540" height="40" as="geometry" />
        </mxCell>
        <mxCell id="TW3tm_7QO1CJUnOCcFBR-10" value="&lt;font style=&quot;font-size: 18px&quot;&gt;Front SIde Bus&lt;/font&gt;" style="text;html=1;align=center;verticalAlign=middle;resizable=0;points=[];autosize=1;" vertex="1" parent="1">
          <mxGeometry x="660" y="270" width="140" height="20" as="geometry" />
        </mxCell>
        <mxCell id="TW3tm_7QO1CJUnOCcFBR-11" value="" style="html=1;shadow=0;dashed=0;align=center;verticalAlign=middle;shape=mxgraph.arrows2.twoWayArrow;dy=0.65;dx=22;direction=south;fillColor=#dae8fc;strokeColor=#6c8ebf;" vertex="1" parent="1">
          <mxGeometry x="185" y="250" width="30" height="60" as="geometry" />
        </mxCell>
        <mxCell id="TW3tm_7QO1CJUnOCcFBR-12" value="" style="html=1;shadow=0;dashed=0;align=center;verticalAlign=middle;shape=mxgraph.arrows2.twoWayArrow;dy=0.65;dx=22;direction=south;fillColor=#dae8fc;strokeColor=#6c8ebf;" vertex="1" parent="1">
          <mxGeometry x="305" y="250" width="30" height="60" as="geometry" />
        </mxCell>
        <mxCell id="TW3tm_7QO1CJUnOCcFBR-13" value="" style="html=1;shadow=0;dashed=0;align=center;verticalAlign=middle;shape=mxgraph.arrows2.twoWayArrow;dy=0.65;dx=22;direction=south;fillColor=#dae8fc;strokeColor=#6c8ebf;" vertex="1" parent="1">
          <mxGeometry x="425" y="250" width="30" height="60" as="geometry" />
        </mxCell>
        <mxCell id="TW3tm_7QO1CJUnOCcFBR-14" value="" style="html=1;shadow=0;dashed=0;align=center;verticalAlign=middle;shape=mxgraph.arrows2.twoWayArrow;dy=0.65;dx=22;direction=south;fillColor=#dae8fc;strokeColor=#6c8ebf;" vertex="1" parent="1">
          <mxGeometry x="545" y="250" width="30" height="60" as="geometry" />
        </mxCell>
        <mxCell id="TW3tm_7QO1CJUnOCcFBR-15" value="" style="html=1;shadow=0;dashed=0;align=center;verticalAlign=middle;shape=mxgraph.arrows2.twoWayArrow;dy=0.65;dx=22;direction=south;fillColor=#dae8fc;strokeColor=#6c8ebf;" vertex="1" parent="1">
          <mxGeometry x="360" y="330" width="30" height="60" as="geometry" />
        </mxCell>
        <mxCell id="TW3tm_7QO1CJUnOCcFBR-16" value="North Bridge" style="rounded=0;whiteSpace=wrap;html=1;fillColor=#f8cecc;strokeColor=#b85450;" vertex="1" parent="1">
          <mxGeometry x="315" y="390" width="120" height="60" as="geometry" />
        </mxCell>
        <mxCell id="TW3tm_7QO1CJUnOCcFBR-17" value="" style="html=1;shadow=0;dashed=0;align=center;verticalAlign=middle;shape=mxgraph.arrows2.twoWayArrow;dy=0.65;dx=22;fillColor=#1ba1e2;strokeColor=#006EAF;fontColor=#ffffff;" vertex="1" parent="1">
          <mxGeometry x="230" y="405" width="85" height="30" as="geometry" />
        </mxCell>
        <mxCell id="TW3tm_7QO1CJUnOCcFBR-18" value="DRAM" style="rounded=0;whiteSpace=wrap;html=1;fillColor=#f8cecc;strokeColor=#b85450;" vertex="1" parent="1">
          <mxGeometry x="110" y="390" width="120" height="60" as="geometry" />
        </mxCell>
        <mxCell id="TW3tm_7QO1CJUnOCcFBR-19" value="&lt;font style=&quot;font-size: 18px&quot;&gt;Memory Bus&lt;/font&gt;" style="text;html=1;align=center;verticalAlign=middle;resizable=0;points=[];autosize=1;" vertex="1" parent="1">
          <mxGeometry x="215" y="360" width="120" height="20" as="geometry" />
        </mxCell>
        <mxCell id="TW3tm_7QO1CJUnOCcFBR-20" value="South Bridge" style="rounded=0;whiteSpace=wrap;html=1;fillColor=#f8cecc;strokeColor=#b85450;" vertex="1" parent="1">
          <mxGeometry x="95" y="560" width="120" height="60" as="geometry" />
        </mxCell>
        <mxCell id="TW3tm_7QO1CJUnOCcFBR-22" value="" style="endArrow=classic;startArrow=classic;html=1;exitX=1;exitY=0.25;exitDx=0;exitDy=0;entryX=0.008;entryY=0.883;entryDx=0;entryDy=0;strokeWidth=3;entryPerimeter=0;" edge="1" parent="1" source="TW3tm_7QO1CJUnOCcFBR-20" target="TW3tm_7QO1CJUnOCcFBR-16">
          <mxGeometry width="50" height="50" relative="1" as="geometry">
            <mxPoint x="250" y="530" as="sourcePoint" />
            <mxPoint x="300" y="480" as="targetPoint" />
          </mxGeometry>
        </mxCell>
        <mxCell id="TW3tm_7QO1CJUnOCcFBR-23" value="&lt;font style=&quot;font-size: 17px&quot;&gt;DMI Bus&lt;/font&gt;" style="text;html=1;align=center;verticalAlign=middle;resizable=0;points=[];autosize=1;rotation=306;" vertex="1" parent="1">
          <mxGeometry x="200" y="500" width="80" height="20" as="geometry" />
        </mxCell>
        <mxCell id="TW3tm_7QO1CJUnOCcFBR-26" value="" style="html=1;shadow=0;dashed=0;align=center;verticalAlign=middle;shape=mxgraph.arrows2.twoWayArrow;dy=0.65;dx=22;fillColor=#1ba1e2;strokeColor=#006EAF;fontColor=#ffffff;" vertex="1" parent="1">
          <mxGeometry x="310" y="500" width="450" height="30" as="geometry" />
        </mxCell>
        <mxCell id="TW3tm_7QO1CJUnOCcFBR-27" value="" style="html=1;shadow=0;dashed=0;align=center;verticalAlign=middle;shape=mxgraph.arrows2.twoWayArrow;dy=0.65;dx=22;direction=south;fillColor=#dae8fc;strokeColor=#6c8ebf;sketch=0;" vertex="1" parent="1">
          <mxGeometry x="360" y="445" width="30" height="65" as="geometry" />
        </mxCell>
        <mxCell id="TW3tm_7QO1CJUnOCcFBR-30" value="PCI-PCI&lt;br&gt;Bridge" style="rounded=0;whiteSpace=wrap;html=1;fillColor=#f8cecc;strokeColor=#b85450;" vertex="1" parent="1">
          <mxGeometry x="332" y="580" width="86" height="40" as="geometry" />
        </mxCell>
        <mxCell id="TW3tm_7QO1CJUnOCcFBR-31" value="VGA" style="rounded=0;whiteSpace=wrap;html=1;fillColor=#f8cecc;strokeColor=#b85450;" vertex="1" parent="1">
          <mxGeometry x="435" y="580" width="86" height="40" as="geometry" />
        </mxCell>
        <mxCell id="TW3tm_7QO1CJUnOCcFBR-32" value="Ethernet Controller" style="rounded=0;whiteSpace=wrap;html=1;fillColor=#f8cecc;strokeColor=#b85450;" vertex="1" parent="1">
          <mxGeometry x="545" y="580" width="86" height="40" as="geometry" />
        </mxCell>
        <mxCell id="TW3tm_7QO1CJUnOCcFBR-62" style="edgeStyle=none;rounded=0;orthogonalLoop=1;jettySize=auto;html=1;entryX=0.75;entryY=0;entryDx=0;entryDy=0;strokeWidth=2;" edge="1" parent="1" source="TW3tm_7QO1CJUnOCcFBR-33" target="TW3tm_7QO1CJUnOCcFBR-58">
          <mxGeometry relative="1" as="geometry" />
        </mxCell>
        <mxCell id="TW3tm_7QO1CJUnOCcFBR-63" style="edgeStyle=none;rounded=0;orthogonalLoop=1;jettySize=auto;html=1;entryX=0.25;entryY=0;entryDx=0;entryDy=0;strokeWidth=2;" edge="1" parent="1" source="TW3tm_7QO1CJUnOCcFBR-33" target="TW3tm_7QO1CJUnOCcFBR-56">
          <mxGeometry relative="1" as="geometry" />
        </mxCell>
        <mxCell id="TW3tm_7QO1CJUnOCcFBR-64" style="edgeStyle=none;rounded=0;orthogonalLoop=1;jettySize=auto;html=1;entryX=0.25;entryY=0;entryDx=0;entryDy=0;strokeWidth=2;" edge="1" parent="1" source="TW3tm_7QO1CJUnOCcFBR-33" target="TW3tm_7QO1CJUnOCcFBR-57">
          <mxGeometry relative="1" as="geometry" />
        </mxCell>
        <mxCell id="TW3tm_7QO1CJUnOCcFBR-33" value="USB Controller" style="rounded=0;whiteSpace=wrap;html=1;fillColor=#f8cecc;strokeColor=#b85450;" vertex="1" parent="1">
          <mxGeometry x="650" y="580" width="86" height="40" as="geometry" />
        </mxCell>
        <mxCell id="TW3tm_7QO1CJUnOCcFBR-34" value="" style="html=1;shadow=0;dashed=0;align=center;verticalAlign=middle;shape=mxgraph.arrows2.twoWayArrow;dy=0.65;dx=22;direction=south;fillColor=#dae8fc;strokeColor=#6c8ebf;sketch=0;" vertex="1" parent="1">
          <mxGeometry x="365" y="520" width="20" height="60" as="geometry" />
        </mxCell>
        <mxCell id="TW3tm_7QO1CJUnOCcFBR-35" value="" style="html=1;shadow=0;dashed=0;align=center;verticalAlign=middle;shape=mxgraph.arrows2.twoWayArrow;dy=0.65;dx=22;direction=south;fillColor=#dae8fc;strokeColor=#6c8ebf;sketch=0;" vertex="1" parent="1">
          <mxGeometry x="468" y="520" width="20" height="60" as="geometry" />
        </mxCell>
        <mxCell id="TW3tm_7QO1CJUnOCcFBR-36" value="" style="html=1;shadow=0;dashed=0;align=center;verticalAlign=middle;shape=mxgraph.arrows2.twoWayArrow;dy=0.65;dx=22;direction=south;fillColor=#dae8fc;strokeColor=#6c8ebf;sketch=0;" vertex="1" parent="1">
          <mxGeometry x="570" y="520" width="20" height="60" as="geometry" />
        </mxCell>
        <mxCell id="TW3tm_7QO1CJUnOCcFBR-37" value="" style="html=1;shadow=0;dashed=0;align=center;verticalAlign=middle;shape=mxgraph.arrows2.twoWayArrow;dy=0.65;dx=22;direction=south;fillColor=#dae8fc;strokeColor=#6c8ebf;sketch=0;" vertex="1" parent="1">
          <mxGeometry x="680" y="520" width="20" height="60" as="geometry" />
        </mxCell>
        <mxCell id="TW3tm_7QO1CJUnOCcFBR-40" value="&lt;font style=&quot;font-size: 20px&quot;&gt;PCI Bus 0&lt;/font&gt;" style="text;html=1;align=center;verticalAlign=middle;resizable=0;points=[];autosize=1;" vertex="1" parent="1">
          <mxGeometry x="487" y="482" width="110" height="20" as="geometry" />
        </mxCell>
        <mxCell id="TW3tm_7QO1CJUnOCcFBR-41" value="" style="html=1;shadow=0;dashed=0;align=center;verticalAlign=middle;shape=mxgraph.arrows2.twoWayArrow;dy=0.65;dx=22;fillColor=#1ba1e2;strokeColor=#006EAF;fontColor=#ffffff;" vertex="1" parent="1">
          <mxGeometry x="162.5" y="670" width="272.5" height="30" as="geometry" />
        </mxCell>
        <mxCell id="TW3tm_7QO1CJUnOCcFBR-42" value="" style="html=1;shadow=0;dashed=0;align=center;verticalAlign=middle;shape=mxgraph.arrows2.twoWayArrow;dy=0.65;dx=22;direction=south;fillColor=#dae8fc;strokeColor=#6c8ebf;sketch=0;" vertex="1" parent="1">
          <mxGeometry x="190" y="620" width="20" height="60" as="geometry" />
        </mxCell>
        <mxCell id="TW3tm_7QO1CJUnOCcFBR-45" value="" style="html=1;shadow=0;dashed=0;align=center;verticalAlign=middle;shape=mxgraph.arrows2.twoWayArrow;dy=0.65;dx=22;direction=south;fillColor=#dae8fc;strokeColor=#6c8ebf;sketch=0;" vertex="1" parent="1">
          <mxGeometry x="360" y="620" width="20" height="60" as="geometry" />
        </mxCell>
        <mxCell id="TW3tm_7QO1CJUnOCcFBR-46" value="&lt;font style=&quot;font-size: 20px&quot;&gt;PCI BUS 2&lt;/font&gt;" style="text;html=1;align=center;verticalAlign=middle;resizable=0;points=[];autosize=1;" vertex="1" parent="1">
          <mxGeometry x="227" y="647" width="110" height="20" as="geometry" />
        </mxCell>
        <mxCell id="TW3tm_7QO1CJUnOCcFBR-47" value="" style="html=1;shadow=0;dashed=0;align=center;verticalAlign=middle;shape=mxgraph.arrows2.twoWayArrow;dy=0.65;dx=22;direction=south;fillColor=#dae8fc;strokeColor=#6c8ebf;sketch=0;" vertex="1" parent="1">
          <mxGeometry x="332" y="690" width="20" height="60" as="geometry" />
        </mxCell>
        <mxCell id="TW3tm_7QO1CJUnOCcFBR-48" value="More PIC devices" style="rounded=0;whiteSpace=wrap;html=1;sketch=0;fillColor=#f8cecc;strokeColor=#b85450;" vertex="1" parent="1">
          <mxGeometry x="305" y="750" width="70" height="50" as="geometry" />
        </mxCell>
        <mxCell id="TW3tm_7QO1CJUnOCcFBR-49" value="" style="endArrow=none;dashed=1;html=1;dashPattern=1 3;strokeWidth=4;" edge="1" parent="1">
          <mxGeometry width="50" height="50" relative="1" as="geometry">
            <mxPoint x="390" y="774.5" as="sourcePoint" />
            <mxPoint x="470" y="774.5" as="targetPoint" />
          </mxGeometry>
        </mxCell>
        <mxCell id="TW3tm_7QO1CJUnOCcFBR-50" value="" style="endArrow=classic;startArrow=classic;html=1;entryX=0.008;entryY=0.883;entryDx=0;entryDy=0;strokeWidth=3;entryPerimeter=0;" edge="1" parent="1">
          <mxGeometry width="50" height="50" relative="1" as="geometry">
            <mxPoint x="130" y="740" as="sourcePoint" />
            <mxPoint x="130.00000000000003" y="618.99" as="targetPoint" />
          </mxGeometry>
        </mxCell>
        <mxCell id="TW3tm_7QO1CJUnOCcFBR-51" value="Legacy Device PS2&lt;br&gt;(keyboard, mouse, PC speaker)" style="ellipse;shape=cloud;whiteSpace=wrap;html=1;sketch=0;fillColor=#f8cecc;strokeColor=#b85450;" vertex="1" parent="1">
          <mxGeometry x="30" y="730" width="220" height="140" as="geometry" />
        </mxCell>
        <mxCell id="TW3tm_7QO1CJUnOCcFBR-59" style="rounded=0;orthogonalLoop=1;jettySize=auto;html=1;strokeWidth=2;exitX=0.25;exitY=1;exitDx=0;exitDy=0;" edge="1" parent="1" source="TW3tm_7QO1CJUnOCcFBR-56">
          <mxGeometry relative="1" as="geometry">
            <mxPoint x="650" y="770" as="targetPoint" />
          </mxGeometry>
        </mxCell>
        <mxCell id="TW3tm_7QO1CJUnOCcFBR-60" style="edgeStyle=none;rounded=0;orthogonalLoop=1;jettySize=auto;html=1;strokeWidth=2;" edge="1" parent="1" source="TW3tm_7QO1CJUnOCcFBR-56">
          <mxGeometry relative="1" as="geometry">
            <mxPoint x="730" y="780" as="targetPoint" />
          </mxGeometry>
        </mxCell>
        <mxCell id="TW3tm_7QO1CJUnOCcFBR-61" style="edgeStyle=none;rounded=0;orthogonalLoop=1;jettySize=auto;html=1;strokeWidth=2;" edge="1" parent="1" source="TW3tm_7QO1CJUnOCcFBR-56">
          <mxGeometry relative="1" as="geometry">
            <mxPoint x="780" y="770" as="targetPoint" />
          </mxGeometry>
        </mxCell>
        <mxCell id="TW3tm_7QO1CJUnOCcFBR-56" value="USB Bridge" style="rounded=0;whiteSpace=wrap;html=1;fillColor=#f8cecc;strokeColor=#b85450;" vertex="1" parent="1">
          <mxGeometry x="670" y="660" width="86" height="40" as="geometry" />
        </mxCell>
        <mxCell id="TW3tm_7QO1CJUnOCcFBR-57" value="USB Device" style="rounded=0;whiteSpace=wrap;html=1;fillColor=#f8cecc;strokeColor=#b85450;" vertex="1" parent="1">
          <mxGeometry x="770" y="665" width="86" height="40" as="geometry" />
        </mxCell>
        <mxCell id="TW3tm_7QO1CJUnOCcFBR-58" value="USB Device" style="rounded=0;whiteSpace=wrap;html=1;fillColor=#f8cecc;strokeColor=#b85450;" vertex="1" parent="1">
          <mxGeometry x="564" y="667" width="86" height="40" as="geometry" />
        </mxCell>
      </root>
    </mxGraphModel>
  </diagram>
</mxfile>
